<svg id="Layer_1" data-name="Layer 1" xmlns="http://www.w3.org/2000/svg" xmlns:xlink="http://www.w3.org/1999/xlink" viewBox="0 0 375 375"><defs><style>.cls-1{fill:#4361ad;}.cls-2{font-size:103.11px;fill:#fff;font-family:Arial-BoldMT, Arial;font-weight:700;}.cls-3{fill:url(#linear-gradient);}.cls-4{fill:none;}</style><linearGradient id="linear-gradient" x1="273.48" y1="293.24" x2="249.07" y2="260.85" gradientUnits="userSpaceOnUse"><stop offset="0"/><stop offset="0.53" stop-color="#fff"/><stop offset="0.97"/></linearGradient></defs><polygon class="cls-1" points="60.94 105.42 55.69 79.92 81.94 81.8 81.94 57.05 104.44 62.3 108.56 37.92 131.44 48.8 140.81 25.17 160.31 39.8 174.19 18.8 191.06 37.17 210.19 18.8 221.44 41.67 242.44 27.8 250.31 49.92 274.69 40.55 274.69 64.92 300.94 62.11 298.31 85.92 323.81 86.67 317.44 111.42 340.69 117.05 331.31 138.42 351.56 148.92 338.44 167.67 357.56 183.05 339.19 198.42 355.69 217.55 332.44 228.05 340.31 240.67 206.63 343.92 199.69 338.95 183.47 356.2 168.28 336.89 149.06 352.17 139.31 329.3 117.56 342.42 111.94 317.3 87.19 324.05 86.06 299.3 60.94 300.05 65.81 274.92 41.44 272.67 50.44 250.92 26.81 242.12 41.06 221.67 19.69 210.05 36.19 192.42 17.44 173.3 39.56 160.92 25.31 142.17 47.44 132.05 37.31 107.67 60.94 105.42"/><text class="cls-2" transform="translate(79.68 223.81)">NFO</text><polygon class="cls-3" points="332.44 227.94 329.06 223.81 318.31 240.06 300.31 229.06 295.06 247.31 273.81 240.81 269.56 264.81 250.06 260.06 250.06 282.31 227.56 279.31 230.06 301.56 209.31 301.56 212.56 323.31 194.06 330.06 199.69 338.84 206.63 343.81 340.31 240.56 332.44 227.94"/><rect class="cls-4" width="375" height="375"/></svg>