<svg id="Layer_1" data-name="Layer 1" xmlns="http://www.w3.org/2000/svg" viewBox="0 0 375 375"><defs><style>.cls-1,.cls-2,.cls-4,.cls-5{fill:none;}.cls-1,.cls-2,.cls-4{stroke:#4361ad;stroke-miterlimit:10;}.cls-1{stroke-width:4px;}.cls-2{stroke-linecap:round;stroke-width:6px;}.cls-3{fill:#4361ad;}.cls-4{stroke-width:2px;}</style></defs><rect class="cls-1" x="175.98" y="200.92" width="86.72" height="101.37"/><rect class="cls-1" x="184.03" y="208.78" width="70.62" height="85.64" rx="13.45"/><polyline class="cls-1" points="189.24 227.91 193.91 231.11 204.88 223.25"/><polyline class="cls-1" points="189.24 248.41 193.91 251.6 204.88 243.74"/><polyline class="cls-1" points="189.24 268.9 193.91 272.1 204.88 264.23"/><line class="cls-1" x1="211.74" y1="231.11" x2="243.58" y2="231.11"/><line class="cls-1" x1="211.74" y1="251.6" x2="243.58" y2="251.6"/><line class="cls-1" x1="211.74" y1="272.1" x2="243.58" y2="272.1"/><path class="cls-2" d="M431.29,344c-49.07,58.44-96.35,114.78-145.43,173.22-5.73,6.84-8,16.18-5.3,24.68,2.65,8.22,9.62,14.56,30.1,5.18" transform="translate(-172.85 -252.68)"/><path class="cls-3" d="M450.57,494.56s33.95-67.14-27.14-131c0,0-59.86-66.05-158.13-14.87,0,0,80.51-9.84,79.62,32.27,0,0,44.94,1.17,61.55,51.81C406.47,432.77,446.5,433.92,450.57,494.56Z" transform="translate(-172.85 -252.68)"/><path class="cls-4" d="M347.25,419.31l-25.38-1.9s.88-59.93-56.57-68.72" transform="translate(-172.85 -252.68)"/><rect class="cls-5" width="375" height="375"/></svg>