<svg id="Layer_1" data-name="Layer 1" xmlns="http://www.w3.org/2000/svg" viewBox="0 0 375 375"><defs><style>.cls-1,.cls-3,.cls-4,.cls-6{fill:none;}.cls-1,.cls-2,.cls-3,.cls-4{stroke:#4361ad;stroke-miterlimit:10;}.cls-1{stroke-width:5px;}.cls-2{fill:#fff;}.cls-2,.cls-3{stroke-width:2.5px;}.cls-5{fill:#f7941d;}</style></defs><rect class="cls-1" x="107.29" y="44.3" width="223.16" height="276.59" rx="29.07"/><rect class="cls-1" x="128.02" y="71.19" width="187.01" height="39.29"/><rect class="cls-1" x="134.9" y="141.01" width="28.29" height="28.29"/><rect class="cls-1" x="200.91" y="141.01" width="28.29" height="28.29"/><rect class="cls-1" x="273.18" y="141.01" width="28.29" height="28.29"/><rect class="cls-1" x="134.9" y="197.8" width="28.29" height="28.29"/><rect class="cls-1" x="200.91" y="197.8" width="28.29" height="28.29"/><rect class="cls-1" x="273.18" y="197.8" width="28.29" height="28.29"/><rect class="cls-1" x="134.9" y="254.58" width="28.29" height="28.29"/><rect class="cls-1" x="200.91" y="254.58" width="28.29" height="28.29"/><rect class="cls-1" x="273.18" y="254.58" width="28.29" height="28.29"/><path class="cls-2" d="M226.79,443.4c-3.65,3.39-89,80-28.17,105.21a34.76,34.76,0,0,0,13.13,2.54l59.29.24a64.33,64.33,0,0,0,17.2-2.21c16.8-4.59,49.58-18.36-17.35-105.78,0,0,19.94-44.89,4.19-39.9a58.7,58.7,0,0,0-19.81,10.82,9.42,9.42,0,0,1-10.28,1.1L240.24,413a5.7,5.7,0,0,0-5.7.3l-7.78,5.12a7.35,7.35,0,0,1-6.37.8C213.34,416.84,199.41,414.23,226.79,443.4Z" transform="translate(-153.06 -207.15)"/><path class="cls-3" d="M297.13,455.37s0-18.95-26.24-12-46.57-.63-46.57-.63" transform="translate(-153.06 -207.15)"/><path class="cls-4" d="M285.85,429.56" transform="translate(-153.06 -207.15)"/><path class="cls-4" d="M264.9,444.79" transform="translate(-153.06 -207.15)"/><path class="cls-3" d="M285.85,419.46s-.46,20-17.56,24.59-36.22,2-34.8-14.49" transform="translate(-153.06 -207.15)"/><path class="cls-3" d="M256.32,429.56s1.77,11-10.73,15.23-10.53,14.69-10.53,14.69" transform="translate(-153.06 -207.15)"/><path class="cls-3" d="M245.59,456.87v-10.4s15.63,2.54,10.82,13" transform="translate(-153.06 -207.15)"/><ellipse class="cls-3" cx="92.62" cy="294.35" rx="33.86" ry="32.17"/><ellipse class="cls-3" cx="92.5" cy="294.35" rx="41.39" ry="39.33"/><polygon class="cls-5" points="109.69 274.77 78.85 274.03 75.55 277.89 106.52 278.64 109.69 274.77"/><polygon class="cls-5" points="109.41 282.97 78.72 281.84 75.59 285.96 106.17 286.7 109.41 282.97"/><path class="cls-5" d="M234.7,485.19s15.09-.74,11.4,10.29c0,0-1.48,6.3-16.4,4.93l-.13,3.67L247,523.63l8.11.2-17.53-20s14.11-.6,15.8-10.15c0,0,2.29-4.07-2.27-8.12Z" transform="translate(-153.06 -207.15)"/><rect class="cls-6" width="375" height="375"/></svg>