<svg id="Layer_1" data-name="Layer 1" xmlns="http://www.w3.org/2000/svg" viewBox="0 0 375 375"><defs><style>.cls-1{fill:#4361ad;}.cls-2,.cls-3,.cls-4,.cls-6,.cls-7{fill:none;}.cls-2{stroke:#4361ad;}.cls-2,.cls-4,.cls-5,.cls-6,.cls-7{stroke-miterlimit:10;stroke-width:5px;}.cls-4{stroke:#27aae1;}.cls-5,.cls-8{fill:#fff;}.cls-5{stroke:#00a79d;}.cls-6{stroke:#1d75bc;}.cls-7{stroke:#2e368f;}.cls-9{fill:#1d75bc;}</style></defs><path class="cls-1" d="M230.22,123.4A118.82,118.82,0,1,0,349.05,242.21,118.81,118.81,0,0,0,230.22,123.4Zm0,223.14A104.32,104.32,0,1,1,334.55,242.21,104.32,104.32,0,0,1,230.22,346.54Z" transform="translate(-90.92 -106.95)"/><path class="cls-2" d="M329.19,308.33h49.46a0,0,0,0,1,0,0V466a19.05,19.05,0,0,1-19.05,19.05H348.24A19.05,19.05,0,0,1,329.19,466V308.33a0,0,0,0,1,0,0Z" transform="translate(-257.27 180.36) rotate(-36.39)"/><line class="cls-2" x1="250.18" y1="253.5" x2="289.01" y2="306.96"/><rect class="cls-3" width="375" height="375"/><rect class="cls-4" x="77.81" y="160.16" width="18.71" height="35.74"/><rect class="cls-5" x="109.33" y="132.4" width="18.71" height="63.5"/><rect class="cls-6" x="140.84" y="120.91" width="18.71" height="74.99"/><rect class="cls-7" x="172.36" y="96.02" width="18.71" height="99.88"/><path class="cls-8" d="M165.62,238.44c1.55-3,64.21.42,111.62-56.86" transform="translate(-90.92 -106.95)"/><path class="cls-6" d="M165.62,238.44c1.42-2.72,54.21-.1,99.53-43.79" transform="translate(-90.92 -106.95)"/><path class="cls-9" d="M263.69,196c-7.39.24-16.63-5-22-9.77,11.92,1.36,24.41.31,35.55-4.68-4.42,11.3-4,23.88-2.4,35.78C269.66,211.66,264.15,203.91,263.69,196Z" transform="translate(-90.92 -106.95)"/></svg>