<svg id="Layer_1" data-name="Layer 1" xmlns="http://www.w3.org/2000/svg" viewBox="0 0 388.72 375"><defs><style>.cls-1,.cls-2,.cls-3,.cls-4,.cls-5,.cls-6,.cls-7,.cls-8{fill:none;}.cls-1,.cls-6{stroke:#00a79d;}.cls-1,.cls-2,.cls-3,.cls-4,.cls-6,.cls-8,.cls-9{stroke-miterlimit:10;}.cls-1,.cls-2,.cls-3,.cls-4,.cls-6,.cls-7{stroke-width:10px;}.cls-2{stroke:#1e75bc;}.cls-3,.cls-7{stroke:#2e388e;}.cls-3,.cls-6,.cls-7{stroke-linecap:round;}.cls-4{stroke:#26a9e1;}.cls-7{stroke-linejoin:round;}.cls-8{stroke:#4361ad;stroke-width:9px;}.cls-9{fill:#fff;stroke:#231f20;stroke-width:4px;}.cls-10{fill:#4361ad;}</style></defs><path class="cls-1" d="M170.45,351.54c-48.06,55.1-39.61,117.3-39.61,117.3" transform="translate(-102.62 -245.69)"/><path class="cls-2" d="M170.45,351.54S218,295.4,289,298.15" transform="translate(-102.62 -245.69)"/><path class="cls-3" d="M285.72,282.27c.18,0,83.21-5,136.38,56.55" transform="translate(-102.62 -245.69)"/><path class="cls-4" d="M411.65,356.26S455,402.84,448.14,469.41" transform="translate(-102.62 -245.69)"/><rect class="cls-5" width="375" height="375"/><line class="cls-6" x1="28.56" y1="223.15" x2="200.01" y2="223.15"/><line class="cls-1" x1="62.63" y1="104.56" x2="195.01" y2="223.15"/><line class="cls-7" x1="181.99" y1="37.81" x2="194.86" y2="218.12"/><line class="cls-3" x1="319.06" y1="94.65" x2="195.01" y2="223.15"/><line class="cls-4" x1="349.63" y1="223.72" x2="195.37" y2="223.72"/><rect class="cls-8" x="271.06" y="240.56" width="113.16" height="13.48" rx="6.58"/><circle class="cls-9" cx="326.41" cy="148.73" r="27.76"/><path class="cls-9" d="M298.21,177.88h56.29a21.29,21.29,0,0,1,21.29,21.29v19.36a7.43,7.43,0,0,1-7.43,7.43h-84a7.43,7.43,0,0,1-7.43-7.43V199.17a21.29,21.29,0,0,1,21.29-21.29Z"/><path class="cls-10" d="M292.63,440l40.51-71.7s15.5-28.21,7.55,1.58L314.41,449s10.34,24-15.78,30.14c0,0-20.44,2.32-21.06-21C277.57,458.17,276.74,448.52,292.63,440Z" transform="translate(-102.62 -245.69)"/></svg>