<svg id="Layer_1" data-name="Layer 1" xmlns="http://www.w3.org/2000/svg" viewBox="0 0 375 375"><defs><style>.cls-1,.cls-6,.cls-7{fill:#4361ad;}.cls-1,.cls-2{stroke:#231f20;}.cls-1,.cls-2,.cls-3,.cls-7{stroke-miterlimit:10;}.cls-2{fill:#fff;}.cls-3,.cls-8{fill:none;}.cls-3,.cls-7{stroke:#4361ad;stroke-width:5px;}.cls-4{fill:#b2b8dd;}.cls-5{fill:#8690c8;}</style></defs><circle class="cls-1" cx="161.5" cy="176.56" r="106.63"/><circle class="cls-2" cx="161.5" cy="176.56" r="95.7"/><circle class="cls-1" cx="161.5" cy="176.56" r="82.83"/><circle class="cls-2" cx="161.5" cy="176.56" r="72.81"/><circle class="cls-1" cx="161.5" cy="176.56" r="61.37"/><circle class="cls-2" cx="161.5" cy="176.56" r="47.06"/><line class="cls-3" x1="161.5" y1="178.5" x2="300.56" y2="227.97"/><path class="cls-4" d="M386.08,282.84a80.49,80.49,0,0,0,28.2-14.12l-39.42-14c-8.48,7.06-19.22,11.15-29.94,13.5Z" transform="translate(-83.62 -54.19)"/><path class="cls-5" d="M344.92,268.2a72.5,72.5,0,0,1,14.68,29.37l39.33,14c-2.52-10.47-6.58-20.23-12.85-28.72Z" transform="translate(-83.62 -54.19)"/><path class="cls-6" d="M372.56,253.88c-8.48,7.06-19.22,11.16-29.93,13.5a72.47,72.47,0,0,1,14.68,29.38l5.29,1.88c-2.53-10.48-6.59-20.23-12.86-28.73a80.13,80.13,0,0,0,28.2-14.11Z" transform="translate(-83.62 -54.19)"/><path class="cls-6" d="M385.32,258.42c-8.48,7.06-19.22,11.15-29.93,13.5a72.62,72.62,0,0,1,14.68,29.37l5.29,1.88a79.18,79.18,0,0,0-12.85-28.72,80.15,80.15,0,0,0,28.18-14.12Z" transform="translate(-83.62 -54.19)"/><path class="cls-6" d="M398.08,263c-8.48,7.06-19.22,11.15-29.92,13.5a72.73,72.73,0,0,1,14.67,29.37l5.29,1.88A79.18,79.18,0,0,0,375.27,279a80.19,80.19,0,0,0,28.19-14.12Z" transform="translate(-83.62 -54.19)"/><path class="cls-6" d="M410.83,267.5c-8.47,7.06-19.21,11.15-29.92,13.5a72.48,72.48,0,0,1,14.67,29.37l5.3,1.88C398.35,301.78,394.3,292,388,283.53a80.41,80.41,0,0,0,28.2-14.12Z" transform="translate(-83.62 -54.19)"/><circle class="cls-7" cx="161.5" cy="178.5" r="9.61"/><rect class="cls-8" width="375" height="375"/></svg>