<svg id="Layer_1" data-name="Layer 1" xmlns="http://www.w3.org/2000/svg" viewBox="0 0 375 375"><defs><style>.cls-1,.cls-2,.cls-5{fill:none;}.cls-1,.cls-2,.cls-3,.cls-4{stroke:#4361ad;stroke-miterlimit:10;}.cls-1{stroke-width:4px;}.cls-2{stroke-width:2px;}.cls-3{fill:#00a79d;}.cls-4{fill:#fff;}</style></defs><ellipse class="cls-1" cx="92.36" cy="156.28" rx="19.48" ry="22.18"/><path class="cls-1" d="M73.58,179.57h37.49A15.94,15.94,0,0,1,127,195.51v16.91a5.56,5.56,0,0,1-5.56,5.56H63.2a5.56,5.56,0,0,1-5.56-5.56V195.51A15.94,15.94,0,0,1,73.58,179.57Z"/><ellipse class="cls-1" cx="276.05" cy="116.53" rx="8.06" ry="9.17"/><path class="cls-1" d="M268.28,126.16h15.5a6.59,6.59,0,0,1,6.59,6.59v7a2.3,2.3,0,0,1-2.3,2.3H264a2.3,2.3,0,0,1-2.3-2.3v-7A6.59,6.59,0,0,1,268.28,126.16Z"/><ellipse class="cls-1" cx="278.61" cy="200.85" rx="8.06" ry="9.17"/><path class="cls-1" d="M270.84,210.48h15.5a6.59,6.59,0,0,1,6.59,6.59v7a2.3,2.3,0,0,1-2.3,2.3H266.55a2.3,2.3,0,0,1-2.3-2.3v-7A6.59,6.59,0,0,1,270.84,210.48Z"/><ellipse class="cls-1" cx="311.33" cy="150.3" rx="8.06" ry="9.17"/><path class="cls-1" d="M303.56,159.93h15.5a6.59,6.59,0,0,1,6.59,6.59v7a2.3,2.3,0,0,1-2.3,2.3H299.27a2.3,2.3,0,0,1-2.3-2.3v-7A6.59,6.59,0,0,1,303.56,159.93Z"/><circle class="cls-1" cx="181.54" cy="187.5" r="24.8"/><path class="cls-2" d="M278.38,413s-1.12-12.23,6.71-11.73,6.2,11.56,6.2,11.56" transform="translate(-105.5 -229.9)"/><path class="cls-3" d="M291.29,421.5l-7.69,8.59.08,3.22.65,1,2.47.25.65-.83h.65l.73-.57v-1.49l1.3-.08.66-.83-.15-1.65,2,.16,1.24-1.4v-1.41l.79-.08,1.16-.41s7.4,2.64,9.29-6.77-10.45-13.22-13.49-5C291.66,414.15,289.84,416.54,291.29,421.5Z" transform="translate(-105.5 -229.9)"/><rect class="cls-2" x="168.24" y="182.97" width="21.18" height="17.4"/><line class="cls-2" x1="188.7" y1="192.42" x2="179.92" y2="202.58"/><ellipse class="cls-4" cx="195.08" cy="185.34" rx="2.03" ry="2.31"/><path class="cls-2" d="M456.55,364.74" transform="translate(-105.5 -229.9)"/><path class="cls-2" d="M481,374.86" transform="translate(-105.5 -229.9)"/><path class="cls-2" d="M318,418.73s16.3,4.22,17.78-21.09-3.7-32.9,20-32.9h0" transform="translate(-105.5 -229.9)"/><path class="cls-2" d="M439.11,445.36" transform="translate(-105.5 -229.9)"/><path class="cls-2" d="M438.45,451.72" transform="translate(-105.5 -229.9)"/><path class="cls-2" d="M435.81,445.36" transform="translate(-105.5 -229.9)"/><path class="cls-2" d="M452.36,452.75" transform="translate(-105.5 -229.9)"/><path class="cls-2" d="M314.09,418.2s14.32-2.12,15.62,10.61-3.25,16.55,17.58,16.55H369" transform="translate(-105.5 -229.9)"/><path class="cls-2" d="M444.78,392.86" transform="translate(-105.5 -229.9)"/><path class="cls-2" d="M462.56,399.23" transform="translate(-105.5 -229.9)"/><path class="cls-2" d="M444.78,382.74" transform="translate(-105.5 -229.9)"/><path class="cls-2" d="M311,418.73h58.14s19,5.25,19-14.62c0,0,0-13.5,14.16-11.25" transform="translate(-105.5 -229.9)"/><line class="cls-1" x1="127" y1="188.54" x2="156.63" y2="188.54"/><rect class="cls-5" width="375" height="375"/></svg>