<svg id="Layer_1" data-name="Layer 1" xmlns="http://www.w3.org/2000/svg" viewBox="0 0 76.69 67.74"><defs><style>.cls-1{fill:#4361ad;}</style></defs><path class="cls-1" d="M297.78,393.11l2.14-3.69a4.8,4.8,0,0,1,8.32,4.8l-20.57,35.62h14.88c4.82,0,7.52,5.66,5.43,9.59H264.37a4.8,4.8,0,1,1,0-9.59h12.22l15.66-27.13-4.89-8.49a4.8,4.8,0,1,1,8.32-4.8l2.1,3.69Zm-18.51,51.26-4.6,8a4.81,4.81,0,0,1-8.33-4.8l3.44-5.92c3.85-1.2,7-.28,9.49,2.73ZM319,429.86h12.49a4.8,4.8,0,0,1,0,9.59h-6.94l4.68,8.11a4.8,4.8,0,0,1-8.32,4.8q-11.82-20.49-17.73-30.71c-4-6.93-1.15-13.89,1.69-16.24q4.72,8.11,14.13,24.45Z" transform="translate(-259.57 -387.02)"/></svg>